<svg width="1227" height="683" viewBox="0 0 1227 683" fill="none" xmlns="http://www.w3.org/2000/svg">
<rect width="1227" height="683" fill="white" style="fill:white;fill-opacity:1;"/>
<path d="M536.999 214.857C520.11 206.381 507.444 210.619 498.999 227.572C490.555 244.524 490.555 261.476 498.999 278.429L524.333 469.143C532.777 486.095 545.444 494.571 562.333 494.571H663.666C680.555 494.571 693.222 486.095 701.666 469.143L726.999 278.429C735.444 261.476 735.444 244.524 726.999 227.572C718.555 210.619 705.888 206.381 688.999 214.857" stroke="black" style="stroke:black;stroke-opacity:1;" stroke-width="2.5"/>
<path d="M524.334 253C583.445 244.524 642.556 244.524 701.667 253" stroke="black" style="stroke:black;stroke-opacity:1;" stroke-width="2"/>
<path d="M529.4 291.143C585.134 282.667 640.867 282.667 696.6 291.143" stroke="black" style="stroke:black;stroke-opacity:1;" stroke-width="2"/>
<path d="M534.467 329.286C586.822 320.81 639.178 320.81 691.533 329.286" stroke="black" style="stroke:black;stroke-opacity:1;" stroke-width="2"/>
<path d="M539.533 367.428C588.511 358.952 637.489 358.952 686.467 367.428" stroke="black" style="stroke:black;stroke-opacity:1;" stroke-width="2"/>
<path d="M544.6 405.571C590.2 397.095 635.8 397.095 681.4 405.571" stroke="black" style="stroke:black;stroke-opacity:1;" stroke-width="2"/>
<path d="M549.666 443.714C591.888 435.238 634.11 435.238 676.333 443.714" stroke="black" style="stroke:black;stroke-opacity:1;" stroke-width="2"/>
<path d="M613 214.857C604.556 197.905 596.111 185.19 587.667 176.714C579.222 171.628 570.778 171.628 562.333 176.714C553.889 181.8 553.889 187.733 562.333 194.514C570.778 199.6 579.222 199.6 587.667 194.514C596.111 187.733 604.556 187.733 613 194.514C621.444 201.295 629.889 201.295 638.333 194.514C646.778 187.733 655.222 187.733 663.667 194.514C672.111 201.295 680.556 201.295 689 194.514C697.444 187.733 697.444 181.8 689 176.714" stroke="black" style="stroke:black;stroke-opacity:1;" stroke-width="2.5"/>
</svg>
