<svg width="2124" height="1282" viewBox="0 0 2124 1282" fill="none" xmlns="http://www.w3.org/2000/svg">
<path opacity="0.05" d="M0.1604 374.737C118.16 334.737 205.16 224.737 326.16 196.737C343.16 192.737 361.16 191.737 375.16 200.737C385.16 207.737 391.16 218.737 397.16 229.737L460.16 353.737C490.16 412.737 532.16 479.737 598.16 479.737C643.16 479.737 681.16 447.737 717.16 420.737C753.16 393.737 804.16 372.737 843.16 395.737C865.16 408.737 878.16 431.737 890.16 453.737C919.346 503.316 954.251 549.298 994.16 590.737C1013.16 610.737 1037.16 631.737 1065.16 630.737C1085.16 629.737 1102.16 618.737 1118.16 609.737C1159.65 586.093 1204.5 568.896 1251.16 558.737C1263.16 556.737 1276.16 554.737 1287.16 560.737C1297.16 566.737 1302.16 577.737 1306.16 588.737C1338.16 676.737 1357.16 775.737 1427.16 836.737C1441.16 848.737 1459.16 859.737 1477.16 854.737C1488.16 852.737 1496.16 845.737 1504.16 838.737C1574.16 775.737 1626.16 694.737 1693.16 628.737C1760.16 562.737 1851.16 508.737 1944.16 522.737C1854 451.229 1767.86 374.779 1686.16 293.737C1665.16 271.737 1642.16 243.737 1651.16 214.737C1656.16 200.737 1667.16 190.737 1679.16 182.737C1744.16 141.737 1830.16 164.737 1901.16 192.737C1972.16 220.737 2049.16 254.737 2123.16 232.737" stroke="#262626"/>
<path opacity="0.05" d="M3.1604 383.737C120.16 343.737 206.16 235.737 325.16 205.737C342.16 201.737 360.16 199.737 374.16 207.737C384.16 213.737 390.16 224.737 395.16 234.737L459.16 348.737C489.16 402.737 531.16 464.737 596.16 463.737C640.16 462.737 677.16 430.737 714.16 404.737C751.16 378.737 799.16 357.737 838.16 377.737C861.16 389.737 877.16 410.737 892.16 432.737L894.16 436.737L927.16 488.737C938.16 505.737 952.16 521.737 965.16 535.737L1004.16 569.737L1015.16 580.737C1028.16 591.737 1042.16 603.737 1055.16 610.737C1062.16 613.737 1068.16 615.737 1075.16 616.737C1084.16 617.737 1092.16 614.737 1100.16 610.737L1119.16 600.737C1125.91 596.892 1132.92 593.55 1140.16 590.737C1176.2 580.558 1212.98 573.202 1250.16 568.737C1263.16 567.737 1276.16 566.737 1287.16 573.737C1295.16 577.737 1300.16 585.737 1303.16 593.737L1308.16 604.737L1330.16 675.737C1338.16 703.737 1348.16 731.737 1362.16 755.737C1374.76 778.857 1390.59 800.069 1409.16 818.737C1419.41 829.312 1430.82 838.704 1443.16 846.737C1452.16 852.737 1463.16 857.737 1475.16 859.737C1482.15 860.866 1489.31 860.525 1496.16 858.737C1507.16 856.737 1517.16 849.737 1525.16 842.737C1552.26 817.454 1577.65 790.394 1601.16 761.737C1636.16 719.737 1668.16 675.737 1706.16 636.737C1770.16 571.737 1856.16 517.737 1946.16 529.737C1860.43 460.347 1778.64 386.232 1701.16 307.737C1681.16 287.737 1659.16 259.737 1669.16 231.737C1673.16 218.737 1684.16 208.737 1696.16 200.737C1758.16 161.737 1839.16 181.737 1908.16 208.737C1977.16 235.737 2050.16 266.737 2121.16 244.737" stroke="#535252"/>
<path opacity="0.05" d="M6.1604 391.737C122.16 352.737 208.16 246.737 325.16 214.737C341.16 210.737 358.16 207.737 372.16 215.737C382.16 220.737 388.16 230.737 393.16 239.737L458.16 344.737C488.16 393.737 531.16 450.737 594.16 447.737C637.16 445.737 674.16 413.737 710.16 388.737C746.16 363.737 794.16 343.737 833.16 360.737C859.31 372.65 881.264 392.164 896.16 416.737L930.16 471.737C942.16 489.737 956.16 507.737 972.16 518.737L1013.16 548.737L1026.16 559.737C1040.16 572.737 1054.16 585.737 1067.16 593.737C1073.16 598.737 1079.16 601.737 1085.16 602.737C1092.16 604.737 1099.16 603.737 1105.16 600.737L1119.16 592.737C1124.79 589.546 1130.85 587.189 1137.16 585.737C1174.38 581.685 1211.74 579.017 1249.16 577.737C1262.16 577.737 1276.16 578.737 1288.16 585.737C1296.16 591.737 1301.16 598.737 1305.16 607.737L1310.16 619.737C1319.16 644.737 1325.16 671.737 1332.16 697.737C1341.16 727.737 1352.16 758.737 1368.16 781.737C1386.16 806.737 1404.16 822.737 1422.16 835.737C1433.4 843.688 1445.47 850.394 1458.16 855.737C1468.16 860.737 1479.16 863.737 1492.16 864.737C1499.55 865.292 1506.99 864.616 1514.16 862.737C1526.16 859.737 1537.16 853.737 1547.16 845.737C1573.95 821.481 1598.71 795.058 1621.16 766.737C1653.16 725.737 1684.16 682.737 1720.16 644.737C1780.16 580.737 1863.16 527.737 1948.16 536.737C1867.24 469.757 1790.12 398.312 1717.16 322.737C1697.16 302.737 1677.16 275.737 1686.16 248.737C1690.16 236.737 1701.16 226.737 1712.16 219.737C1771.16 180.737 1849.16 199.737 1915.16 224.737C1981.16 249.737 2051.16 277.737 2119.16 256.737" stroke="#5B5B5A"/>
<path opacity="0.05" d="M9.1604 400.737C124.16 361.737 209.16 257.737 324.16 223.737C339.16 218.737 357.16 216.737 370.16 222.737C380.16 227.737 386.16 236.737 392.16 244.737L457.16 339.737C488.16 384.737 530.16 436.737 592.16 431.737C635.16 428.737 671.16 397.737 707.16 371.737C743.16 345.737 789.16 327.737 829.16 342.737C855.16 351.737 876.16 368.737 894.16 391.737L897.16 396.737C910.16 414.737 921.16 435.737 933.16 454.737C945.16 473.737 961.16 492.737 978.16 502.737C993.16 512.737 1006.16 516.737 1023.16 527.737C1028.09 531.42 1032.77 535.429 1037.16 539.737L1079.16 577.737L1094.16 589.737C1101.16 591.737 1106.16 591.737 1110.16 589.737L1120.16 583.737C1124.52 581.622 1129.32 580.592 1134.16 580.737L1184.16 584.737L1247.16 587.737C1261.16 588.737 1276.16 589.737 1289.16 598.737C1297.16 604.737 1303.16 612.737 1307.16 621.737C1309.05 625.982 1310.72 630.321 1312.16 634.737C1322.16 661.737 1328.16 690.737 1335.16 718.737C1343.16 751.737 1356.16 784.737 1375.16 807.737C1396.16 832.737 1417.16 843.737 1436.16 852.737C1448.05 858.237 1460.44 862.59 1473.16 865.737C1484.89 868.95 1496.99 870.63 1509.16 870.737C1517.3 870.472 1525.37 869.127 1533.16 866.737C1545.7 863.081 1557.53 857.334 1568.16 849.737C1594.65 826.512 1618.76 800.72 1640.16 772.737C1670.16 732.737 1699.16 690.737 1733.16 653.737C1790.16 589.737 1869.16 537.737 1950.16 543.737C1873.67 478.876 1800.89 409.767 1732.16 336.737C1714.16 317.737 1695.16 291.737 1703.16 266.737C1708.16 253.737 1718.16 244.737 1728.16 237.737C1785.16 200.737 1859.16 217.737 1922.16 239.737C1985.16 261.737 2053.16 289.737 2117.16 268.737" stroke="#646463"/>
<path opacity="0.05" d="M12.1604 408.737C125.16 369.737 211.16 268.737 323.16 232.737C338.16 227.737 355.16 224.737 369.16 230.737C378.16 234.737 384.16 242.737 390.16 249.737L456.16 334.737C487.16 374.737 529.16 421.737 590.16 415.737C632.16 411.737 668.16 380.737 704.16 355.737C740.16 330.737 784.16 312.737 824.16 324.737C851.16 332.737 875.16 347.737 895.16 371.737L899.16 375.737C913.16 394.737 923.16 416.737 936.16 437.737C949.16 458.737 966.16 477.737 984.16 486.737C1001.16 495.737 1015.16 495.737 1033.16 506.737C1038.51 510.283 1043.53 514.299 1048.16 518.737C1064.16 532.737 1080.16 548.737 1091.16 561.737L1104.16 575.737C1109.16 579.737 1112.16 579.737 1115.16 578.737L1121.16 575.737H1130.16C1139.16 578.737 1157.16 583.737 1179.16 587.737C1199.16 591.737 1222.16 594.737 1246.16 597.737C1261.16 599.737 1276.16 601.737 1289.16 611.737C1298.16 617.737 1304.16 626.737 1309.16 636.737C1311.38 640.965 1313.38 645.304 1315.16 649.737C1325.16 678.737 1330.16 709.737 1337.16 740.737C1346.16 774.737 1360.16 811.737 1382.16 834.737C1406.16 858.737 1429.16 865.737 1450.16 869.737C1462.99 872.722 1476.03 874.728 1489.16 875.737C1501.47 876.739 1513.85 876.739 1526.16 875.737C1534.6 875.227 1542.98 873.887 1551.16 871.737C1564.66 867.684 1577.47 861.616 1589.16 853.737C1614.97 831.845 1638.12 807.009 1658.16 779.737C1687.16 739.737 1715.16 698.737 1747.16 661.737C1801.16 599.737 1875.16 547.737 1952.16 550.737C1880.48 488.286 1812.37 421.848 1748.16 351.737C1731.16 332.737 1712.16 307.737 1721.16 283.737C1725.16 271.737 1734.16 262.737 1744.16 256.737C1799.16 219.737 1869.16 235.737 1929.16 255.737C1989.16 275.737 2054.16 301.737 2116.16 281.737" stroke="#6D6C6C"/>
<path opacity="0.05" d="M15.1604 417.737C127.16 378.737 212.16 279.737 322.16 241.737C337.16 236.737 354.16 232.737 367.16 237.737C376.16 240.737 382.16 247.737 388.16 254.737L455.16 330.737C487.16 365.737 528.16 407.737 588.16 399.737C629.16 394.737 665.16 363.737 700.16 338.737C735.16 313.737 780.16 297.737 819.16 306.737C851.031 313.169 879.669 330.493 900.16 355.737C916.16 374.737 926.16 398.737 939.16 420.737C952.16 442.737 971.16 463.737 991.16 470.737C1009.16 477.737 1023.16 474.737 1042.16 485.737C1048.16 488.737 1053.16 493.737 1059.16 498.737C1076.16 513.737 1093.16 530.737 1103.16 544.737L1114.16 561.737C1117.16 566.737 1119.16 568.737 1120.16 567.737L1121.16 566.737L1127.16 570.737C1134.16 575.737 1152.16 584.737 1174.16 591.737C1195.16 597.737 1220.16 602.737 1244.16 606.737C1260.16 609.737 1277.16 613.737 1290.16 623.737C1299.16 630.737 1306.16 640.737 1311.16 650.737C1313.45 655.618 1315.45 660.626 1317.16 665.737C1328.16 695.737 1332.16 729.737 1340.16 761.737C1348.16 798.737 1364.16 837.737 1389.16 860.737C1416.16 883.737 1442.16 886.737 1464.16 886.737C1490.63 887.389 1517.09 885.379 1543.16 880.737C1552.27 879.71 1561.29 878.039 1570.16 875.737C1584.16 870.737 1598.16 865.737 1611.16 857.737C1624.16 849.737 1634.16 838.737 1645.16 827.737C1657.16 813.737 1668.16 799.737 1677.16 785.737C1704.16 746.737 1730.16 706.737 1760.16 669.737C1811.16 608.737 1881.16 557.737 1954.16 557.737C1886.91 497.406 1823.14 433.303 1763.16 365.737C1747.16 347.737 1730.16 324.737 1738.16 300.737C1742.16 289.737 1751.16 280.737 1761.16 274.737C1812.16 239.737 1879.16 253.737 1936.16 271.737C1993.16 289.737 2054.16 312.737 2114.16 293.737" stroke="#757574"/>
<path opacity="0.05" d="M17.1604 426.737C129.16 387.737 214.16 290.737 322.16 250.737C336.16 244.737 352.16 240.737 365.16 244.737C374.16 247.737 381.16 253.737 387.16 259.737L454.16 325.737C486.16 356.737 528.16 393.737 586.16 383.737C627.16 376.737 662.16 347.737 697.16 322.737C732.16 297.737 775.16 281.737 814.16 289.737C847.606 293.859 878.47 309.823 901.16 334.737C918.16 355.737 929.16 380.737 942.16 403.737C955.16 426.737 976.16 448.737 997.16 454.737C1016.16 460.737 1031.16 454.737 1052.16 464.737C1077.14 481.744 1098.55 503.488 1115.16 528.737C1118.78 534.757 1121.8 541.121 1124.16 547.737C1126.16 554.737 1125.16 556.737 1124.16 557.737L1122.16 558.737C1121.16 559.737 1121.16 561.737 1124.16 565.737C1128.16 573.737 1146.16 586.737 1169.16 595.737C1191.16 603.737 1217.16 610.737 1243.16 616.737C1259.16 620.737 1277.16 625.737 1291.16 636.737C1300.16 644.737 1307.16 654.737 1313.16 665.737C1315.44 670.62 1317.44 675.628 1319.16 680.737C1331.16 713.737 1335.16 748.737 1342.16 782.737C1351.16 822.737 1368.16 864.737 1396.16 886.737C1426.16 909.737 1455.16 907.737 1478.16 903.737L1519.16 894.737L1560.16 886.737C1585.08 881.33 1609.25 872.936 1632.16 861.737C1645.16 853.737 1656.16 843.737 1666.16 832.737C1678.16 819.737 1687.16 805.737 1697.16 791.737C1722.16 753.737 1746.16 713.737 1774.16 678.737C1821.16 617.737 1887.16 566.737 1956.16 564.737C1893.33 506.53 1833.9 444.762 1778.16 379.737C1764.16 362.737 1748.16 340.737 1756.16 317.737C1759.16 307.737 1768.16 299.737 1777.16 292.737C1826.16 259.737 1889.16 270.737 1943.16 287.737C1997.16 304.737 2056.16 324.737 2112.16 305.737" stroke="#7E7E7D"/>
<path opacity="0.05" d="M20.1604 434.737C131.16 395.737 215.16 301.737 321.16 259.737C335.16 253.737 351.16 249.737 364.16 252.737C373.16 254.737 379.16 259.737 385.16 264.737L454.16 320.737C486.16 346.737 527.16 379.737 584.16 367.737C624.16 359.737 659.16 330.737 693.16 306.737C727.16 282.737 771.16 266.737 809.16 271.737C842.16 276.737 874.16 283.737 898.16 309.737L903.16 314.737C921.16 335.737 931.16 362.737 945.16 386.737C959.16 410.737 981.16 433.737 1004.16 438.737C1024.16 442.737 1039.16 433.737 1062.16 443.737C1089.23 460.976 1111.57 484.691 1127.16 512.737C1130.4 519.674 1132.43 527.115 1133.16 534.737C1134.16 541.737 1131.16 545.737 1129.16 546.737L1122.16 550.737C1120.16 551.737 1119.16 554.737 1120.16 560.737C1123.16 571.737 1140.16 587.737 1164.16 598.737C1186.16 609.737 1214.16 618.737 1242.16 626.737C1259.16 631.737 1277.16 636.737 1291.16 649.737C1301.16 657.737 1309.16 667.737 1315.16 679.737C1317.46 684.952 1319.47 690.294 1321.16 695.737C1334.16 730.737 1337.16 767.737 1344.16 804.737C1353.16 846.737 1371.16 891.737 1403.16 912.737C1436.16 935.737 1468.16 929.737 1491.16 921.737L1534.16 904.737C1546.16 900.737 1560.16 895.737 1577.16 891.737L1607.16 883.737C1623.16 878.737 1639.16 873.737 1654.16 865.737C1666.16 858.737 1676.16 848.737 1686.16 837.737C1698.16 825.737 1707.16 811.737 1715.16 797.737C1739.16 760.737 1761.16 721.737 1787.16 686.737C1832.16 627.737 1893.16 576.737 1958.16 572.737C1900.11 516.617 1845.35 457.184 1794.16 394.737C1780.16 377.737 1766.16 356.737 1773.16 335.737C1777.16 325.737 1785.16 317.737 1793.16 311.737C1839.16 278.737 1899.16 288.737 1950.16 303.737C2001.16 318.737 2057.16 335.737 2110.16 317.737" stroke="#868686"/>
<path opacity="0.05" d="M23.1604 443.737C132.16 404.737 217.16 312.737 320.16 268.737C334.16 262.737 349.16 257.737 362.16 259.737C371.16 261.737 377.16 265.737 383.16 269.737L453.16 315.737C485.16 337.737 526.16 364.737 582.16 351.737C621.16 342.737 655.16 313.737 690.16 289.737C725.16 265.737 767.16 260.737 804.16 253.737C822.86 251.271 841.879 253.656 859.391 260.661C876.903 267.665 892.32 279.055 904.16 293.737C924.16 315.737 934.16 343.737 948.16 369.737C962.16 395.737 986.16 419.737 1010.16 422.737C1032.16 425.737 1048.16 412.737 1071.16 422.737C1079.16 425.737 1085.16 430.737 1091.16 436.737C1112.16 454.737 1132.16 475.737 1139.16 495.737C1143.16 506.737 1144.16 514.737 1143.16 520.737C1142.16 528.737 1138.16 533.737 1134.16 535.737L1123.16 541.737C1119.16 544.737 1116.16 548.737 1117.16 555.737C1117.16 568.737 1135.16 588.737 1159.16 602.737C1182.16 615.737 1211.16 625.737 1240.16 635.737C1258.16 641.737 1277.16 648.737 1292.16 661.737C1302.16 670.737 1310.16 681.737 1316.16 693.737C1319.17 699.234 1321.84 704.911 1324.16 710.737C1337.16 747.737 1339.16 787.737 1347.16 825.737C1356.16 869.737 1375.16 917.737 1410.16 938.737C1446.16 960.737 1480.16 950.737 1505.16 938.737L1550.16 914.737C1564.34 907.616 1579.05 901.598 1594.16 896.737L1625.16 887.737C1642.16 881.737 1660.16 877.737 1675.16 869.737C1687.16 862.737 1697.16 853.737 1707.16 842.737C1718.16 830.737 1726.16 816.737 1734.16 803.737C1756.16 766.737 1777.16 729.737 1801.16 694.737C1842.16 636.737 1899.16 586.737 1960.16 578.737C1906.56 525.061 1856.14 468.298 1809.16 408.737C1796.16 392.737 1783.16 372.737 1790.16 352.737C1794.16 342.737 1801.16 335.737 1809.16 329.737C1853.16 298.737 1909.16 306.737 1957.16 318.737C2005.16 330.737 2058.16 347.737 2108.16 329.737" stroke="#8F8F8E"/>
<path opacity="0.05" d="M26.1604 451.737C134.16 413.737 218.16 323.737 319.16 277.737C333.16 271.737 348.16 265.737 360.16 267.737C369.16 267.737 375.16 271.737 382.16 274.737L452.16 311.737C485.16 328.737 526.16 350.737 580.16 335.737C618.16 325.737 652.16 297.737 686.16 273.737C720.16 249.737 763.16 244.737 800.16 236.737C835.16 228.737 873.16 241.737 901.16 268.737L906.16 273.737C926.16 295.737 936.16 325.737 951.16 352.737C966.16 379.737 991.16 404.737 1016.16 406.737C1040.16 408.737 1056.16 392.737 1081.16 401.737C1089.16 404.737 1096.16 410.737 1102.16 415.737C1124.16 434.737 1144.16 457.737 1151.16 479.737C1154.16 490.737 1154.16 499.737 1153.16 506.737C1152.35 510.732 1150.68 514.502 1148.26 517.784C1145.84 521.066 1142.74 523.78 1139.16 525.737C1134.16 527.737 1128.16 529.737 1124.16 533.737C1118.16 536.737 1114.16 541.737 1113.16 549.737C1112.16 566.737 1129.16 589.737 1154.16 605.737C1178.16 621.737 1209.16 633.737 1239.16 645.737C1257.16 652.737 1277.16 660.737 1293.16 674.737C1303.63 684.333 1312.12 695.883 1318.16 708.737C1321.2 714.562 1323.88 720.574 1326.16 726.737C1339.16 764.737 1342.16 806.737 1349.16 846.737C1358.16 893.737 1379.16 944.737 1417.16 964.737C1456.16 986.737 1493.16 971.737 1519.16 955.737L1565.16 923.737C1579.7 914.843 1595.11 907.47 1611.16 901.737L1644.16 891.737C1661.16 885.737 1680.16 880.737 1696.16 872.737C1708.16 866.737 1718.16 857.737 1728.16 847.737C1739.16 836.737 1746.16 822.737 1753.16 809.737C1773.16 773.737 1792.16 736.737 1815.16 703.737C1852.16 646.737 1905.16 596.737 1962.16 586.737C1912.95 534.855 1866.87 480.092 1824.16 422.737C1813.16 407.737 1801.16 388.737 1808.16 369.737C1811.16 360.737 1818.16 353.737 1826.16 347.737C1866.16 317.737 1919.16 324.737 1964.16 334.737C2009.16 344.737 2059.16 358.737 2106.16 341.737" stroke="#989797"/>
<path opacity="0.05" d="M29.1604 460.737C136.16 422.737 219.16 334.737 319.16 286.737C332.16 279.737 347.16 274.737 359.16 274.737C367.16 274.737 374.16 277.737 380.16 279.737L451.16 306.737C484.16 318.737 525.16 335.737 578.16 319.737C616.16 308.737 649.16 280.737 683.16 256.737C717.16 232.737 759.16 227.737 795.16 218.737C815.167 213.966 836.082 214.601 855.763 220.575C875.444 226.55 893.182 237.649 907.16 252.737C929.16 275.737 939.16 307.737 954.16 335.737C969.16 363.737 996.16 389.737 1023.16 390.737C1048.16 390.737 1064.16 371.737 1091.16 380.737C1099.16 383.737 1106.16 389.737 1113.16 395.737C1136.16 415.737 1157.16 439.737 1163.16 463.737C1166.16 475.737 1165.16 485.737 1162.16 493.737C1159.16 503.737 1151.16 510.737 1144.16 514.737L1124.16 524.737C1117.16 529.737 1112.16 535.737 1110.16 544.737C1106.16 564.737 1123.16 590.737 1149.16 609.737C1174.16 628.737 1206.16 641.737 1237.16 655.737C1257.16 663.737 1277.16 672.737 1293.16 687.737C1304.27 697.615 1313.43 709.486 1320.16 722.737C1323.22 728.896 1325.89 735.242 1328.16 741.737C1342.16 781.737 1344.16 825.737 1352.16 868.737C1360.16 917.737 1383.16 970.737 1424.16 990.737C1466.16 1012.74 1506.16 993.737 1533.16 972.737L1580.16 933.737C1595.02 923.111 1611.14 914.377 1628.16 907.737C1639.16 902.737 1650.16 899.737 1662.16 895.737C1681.16 889.737 1700.16 884.737 1718.16 876.737C1729.16 871.737 1739.16 862.737 1748.16 853.737C1759.16 841.737 1766.16 828.737 1772.16 815.737C1790.16 780.737 1808.16 744.737 1828.16 711.737C1863.16 655.737 1911.16 606.737 1964.16 593.737C1919.39 544.3 1877.65 492.205 1839.16 437.737C1829.16 423.737 1819.16 405.737 1825.16 386.737C1828.16 378.737 1835.16 371.737 1842.16 366.737C1880.16 337.737 1929.16 342.737 1971.16 350.737C2013.16 358.737 2060.16 370.737 2104.16 353.737" stroke="#A0A0A0"/>
<path opacity="0.05" d="M32.1604 469.737C138.16 430.737 221.16 345.737 318.16 295.737C331.16 288.737 345.16 282.737 357.16 281.737C365.16 281.737 372.16 283.737 378.16 284.737L450.16 301.737C484.16 309.737 524.16 321.737 577.16 303.737C613.16 291.737 646.16 263.737 680.16 240.737C714.16 217.737 755.16 211.737 790.16 200.737C828.16 189.737 872.16 198.737 903.16 226.737L909.16 232.737C931.16 255.737 942.16 288.737 957.16 318.737C972.16 348.737 1001.16 375.737 1029.16 374.737C1055.16 373.737 1073.16 350.737 1100.16 359.737C1109.16 362.737 1117.16 368.737 1124.16 374.737C1148.16 395.737 1170.16 421.737 1175.16 447.737C1178.16 459.737 1176.16 470.737 1172.16 479.737C1167.16 490.737 1158.16 498.737 1148.16 503.737L1125.16 516.737C1117.16 521.737 1110.16 528.737 1107.16 539.737C1101.16 561.737 1118.16 591.737 1144.16 613.737C1170.16 634.737 1203.16 649.737 1236.16 664.737C1256.16 673.737 1277.16 683.737 1294.16 699.737C1305.75 710.573 1315.24 723.456 1322.16 737.737C1325.22 743.898 1327.89 750.244 1330.16 756.737C1345.16 798.737 1347.16 845.737 1354.16 889.737C1363.16 941.737 1387.16 997.737 1431.16 1017.74C1476.16 1037.74 1519.16 1014.74 1547.16 989.737C1563.16 974.737 1578.16 958.737 1596.16 943.737C1610.96 931.156 1627.45 920.72 1645.16 912.737L1681.16 899.737C1700.16 892.737 1721.16 888.737 1739.16 880.737C1750.16 875.737 1760.16 867.737 1769.16 858.737C1779.16 847.737 1785.16 834.737 1791.16 821.737C1808.16 787.737 1823.16 752.737 1842.16 719.737C1873.16 664.737 1917.16 615.737 1966.16 600.737C1926.14 553.393 1889.07 503.632 1855.16 451.737C1846.16 438.737 1836.16 421.737 1843.16 404.737C1846.16 396.737 1852.16 389.737 1858.16 384.737C1893.16 356.737 1939.16 359.737 1978.16 366.737C2017.16 373.737 2061.16 381.737 2103.16 365.737" stroke="#A9A9A8"/>
<path opacity="0.05" d="M35.1604 477.737C140.16 439.737 222.16 356.737 317.16 304.737C330.16 297.737 344.16 290.737 355.16 289.737H376.16L449.16 296.737C483.16 300.737 523.16 307.737 575.16 287.737C610.16 274.737 643.16 247.737 676.16 224.737C709.16 201.737 751.16 194.737 785.16 183.737C806.571 176.584 829.528 175.411 851.556 180.346C873.584 185.28 893.847 196.134 910.16 211.737C934.16 236.737 944.16 270.737 960.16 301.737C976.16 332.737 1006.16 360.737 1036.16 358.737C1063.16 356.737 1081.16 330.737 1110.16 338.737C1119.16 341.737 1128.16 347.737 1135.16 354.737C1160.16 375.737 1183.16 402.737 1187.16 430.737C1189.16 444.737 1187.16 456.737 1182.16 465.737C1175.16 478.737 1164.16 487.737 1153.16 492.737L1126.16 507.737C1116.16 514.737 1107.16 522.737 1103.16 534.737C1095.16 559.737 1112.16 592.737 1139.16 616.737C1165.16 640.737 1200.16 657.737 1235.16 674.737C1255.16 684.737 1277.16 695.737 1295.16 712.737C1307.04 723.933 1316.86 737.135 1324.16 751.737C1327.62 758.53 1330.63 765.545 1333.16 772.737C1348.16 815.737 1349.16 864.737 1357.16 911.737C1365.16 965.737 1391.16 1023.74 1437.16 1043.74C1486.16 1063.74 1531.16 1036.74 1561.16 1006.74C1577.16 989.737 1592.16 970.737 1611.16 952.737C1626.25 938.509 1643.46 926.702 1662.16 917.737L1699.16 903.737C1719.16 896.737 1741.16 892.737 1760.16 884.737C1771.16 879.737 1781.16 872.737 1790.16 863.737C1799.16 852.737 1805.16 840.737 1810.16 827.737C1825.16 794.737 1839.16 760.737 1855.16 728.737C1883.16 674.737 1923.16 625.737 1968.16 607.737C1932.57 562.835 1899.84 515.743 1870.16 466.737C1862.16 453.737 1854.16 437.737 1860.16 421.737C1863.16 413.737 1869.16 407.737 1875.16 402.737C1907.16 376.737 1949.16 377.737 1985.16 381.737C2021.16 385.737 2062.16 393.737 2101.16 377.737" stroke="#B1B1B1"/>
<path opacity="0.05" d="M37.1604 486.737C141.16 448.737 224.16 367.737 316.16 313.737C329.16 305.737 342.16 299.737 354.16 296.737L375.16 294.737L448.16 292.737C483.16 290.737 523.16 293.737 573.16 271.737C607.16 256.737 640.16 230.737 673.16 207.737C706.16 184.737 745.16 169.737 780.16 165.737C824.16 160.737 871.16 156.737 906.16 185.737L912.16 191.737C937.16 216.737 947.16 252.737 963.16 283.737C979.16 314.737 1011.16 345.737 1042.16 342.737C1071.16 338.737 1089.16 309.737 1120.16 317.737C1130.16 320.737 1138.16 326.737 1146.16 333.737C1172.16 356.737 1196.16 384.737 1199.16 414.737C1200.7 427.937 1197.9 441.28 1191.16 452.737C1184.16 465.737 1171.16 475.737 1158.16 482.737C1148.16 487.737 1136.16 492.737 1126.16 499.737C1115.16 506.737 1105.16 516.737 1100.16 529.737C1090.16 557.737 1106.16 593.737 1134.16 620.737C1161.16 646.737 1198.16 665.737 1233.16 683.737C1255.16 695.737 1277.16 707.737 1295.16 725.737C1307.7 737.205 1318.18 750.734 1326.16 765.737C1329.65 772.86 1332.66 780.21 1335.16 787.737C1351.16 833.737 1351.16 883.737 1359.16 932.737C1368.16 988.737 1394.16 1050.74 1444.16 1069.74C1496.16 1089.74 1544.16 1057.74 1574.16 1023.74C1592.16 1003.74 1607.16 982.737 1626.16 962.737C1650.98 936.529 1682.42 917.524 1717.16 907.737C1739.16 899.737 1761.16 896.737 1782.16 888.737C1792.88 884.268 1802.46 877.43 1810.16 868.737C1820.16 858.737 1825.16 845.737 1829.16 833.737C1842.16 801.737 1854.16 767.737 1869.16 736.737C1894.16 683.737 1929.16 635.737 1970.16 614.737C1939.31 571.922 1911.25 527.162 1886.16 480.737C1879.16 468.737 1872.16 453.737 1877.16 438.737C1880.16 431.737 1885.16 425.737 1891.16 421.737C1921.16 396.737 1959.16 395.737 1992.16 397.737C2025.16 399.737 2063.16 405.737 2099.16 389.737" stroke="#BABABA"/>
<path opacity="0.05" d="M40.1604 494.737C143.16 456.737 225.16 378.737 316.16 321.737C328.16 314.737 341.16 307.737 352.16 304.737C360.16 301.737 367.16 300.737 373.16 299.737L447.16 287.737C482.16 281.737 522.16 278.737 571.16 255.737C605.16 239.737 637.16 213.737 669.16 191.737C701.16 169.737 740.16 153.737 776.16 147.737C821.16 140.737 870.16 135.737 907.16 165.737L913.16 171.737C939.16 196.737 950.16 234.737 966.16 266.737C982.16 298.737 1016.16 331.737 1048.16 326.737C1078.16 321.737 1098.16 288.737 1129.16 296.737C1140.16 299.737 1149.16 306.737 1157.16 313.737C1183.16 336.737 1209.16 366.737 1211.16 398.737C1212.26 412.802 1208.75 426.842 1201.16 438.737C1192.16 453.737 1177.16 463.737 1163.16 471.737C1151.16 477.737 1138.16 483.737 1127.16 490.737C1114.16 499.737 1103.16 509.737 1097.16 524.737C1084.16 554.737 1101.16 595.737 1129.16 623.737C1157.16 652.737 1195.16 672.737 1232.16 693.737C1254.16 706.737 1277.16 719.737 1296.16 737.737C1309.18 750.156 1320 764.696 1328.16 780.737C1331.64 787.863 1334.65 795.212 1337.16 802.737C1354.16 850.737 1354.16 903.737 1361.16 953.737C1370.16 1012.74 1398.16 1077.74 1451.16 1095.74C1506.16 1115.74 1557.16 1078.74 1588.16 1040.74C1606.16 1018.74 1622.16 994.737 1642.16 972.737C1667.11 943.946 1699.7 922.798 1736.16 911.737C1758.16 903.737 1781.16 899.737 1803.16 892.737C1813.91 888.789 1823.52 882.265 1831.16 873.737C1840.16 863.737 1844.16 851.737 1848.16 839.737C1859.16 807.737 1869.16 775.737 1882.16 744.737C1904.16 692.737 1936.16 645.737 1972.16 621.737C1945.69 581.034 1921.97 538.606 1901.16 494.737C1895.16 483.737 1890.16 469.737 1895.16 455.737C1897.16 449.737 1902.16 444.737 1907.16 439.737C1934.16 415.737 1969.16 413.737 1999.16 413.737C2029.16 413.737 2064.16 416.737 2097.16 401.737" stroke="#C3C3C2"/>
<path opacity="0.05" d="M43.1604 503.737C145.16 465.737 227.16 389.737 315.16 330.737C327.16 323.737 339.16 315.737 350.16 311.737L371.16 304.737L446.16 282.737C482.16 272.737 521.16 264.737 569.16 239.737C602.16 222.737 633.16 197.737 666.16 175.737C699.16 153.737 736.16 137.737 771.16 130.737C818.16 120.737 870.16 114.737 908.16 144.737L915.16 150.737C942.16 176.737 952.16 215.737 969.16 249.737C986.16 283.737 1021.16 316.737 1055.16 309.737C1086.16 303.737 1106.16 268.737 1139.16 275.737C1150.16 278.737 1159.16 285.737 1168.16 292.737C1195.16 316.737 1222.16 348.737 1223.16 381.737C1224.04 397.004 1219.81 412.129 1211.16 424.737C1200.16 440.737 1184.16 452.737 1168.16 460.737L1127.16 482.737C1113.16 491.737 1100.16 503.737 1093.16 519.737C1079.16 552.737 1095.16 596.737 1124.16 627.737C1153.16 658.737 1192.16 680.737 1230.16 703.737C1253.16 716.737 1277.16 731.737 1297.16 750.737C1310.12 763.59 1320.93 778.447 1329.16 794.737C1333.02 802.166 1336.36 809.85 1339.16 817.737C1357.16 867.737 1356.16 922.737 1364.16 975.737C1373.16 1036.74 1402.16 1103.74 1458.16 1121.74C1516.16 1140.74 1570.16 1100.74 1602.16 1057.74C1620.16 1033.74 1637.16 1005.74 1657.16 981.737C1682.41 950.8 1716.11 927.87 1754.16 915.737C1777.16 907.737 1802.16 903.737 1824.16 895.737C1834.81 892.595 1844.46 886.736 1852.16 878.737C1860.16 869.737 1864.16 857.737 1867.16 845.737C1876.16 814.737 1885.16 783.737 1896.16 753.737C1914.16 702.737 1942.16 655.737 1974.16 628.737C1952.1 590.459 1932.72 550.697 1916.16 509.737C1912.16 498.737 1907.16 485.737 1912.16 473.737C1914.16 467.737 1919.16 462.737 1923.16 457.737C1948.16 435.737 1978.16 431.737 2006.16 429.737C2034.16 427.737 2065.16 428.737 2095.16 413.737" stroke="#CBCBCB"/>
<path opacity="0.05" d="M46.1604 512.737C147.16 474.737 228.16 400.737 314.16 339.737L348.16 318.737L370.16 309.737L446.16 277.737C481.16 262.737 521.16 250.737 567.16 223.737C599.16 205.737 630.16 180.737 662.16 158.737C694.16 136.737 731.16 120.737 766.16 112.737C814.16 100.737 869.16 93.737 909.16 124.737C911.827 126.07 914.16 128.07 916.16 130.737C945.16 156.737 955.16 197.737 972.16 232.737C989.16 267.737 1025.16 301.737 1061.16 293.737C1094.16 286.737 1114.16 247.737 1149.16 254.737C1160.16 256.737 1170.16 264.737 1179.16 272.737C1207.16 297.737 1234.16 329.737 1235.16 365.737C1235.16 383.737 1230.16 398.737 1220.16 410.737C1208.16 427.737 1190.16 440.737 1172.16 449.737C1158.16 457.737 1142.16 464.737 1128.16 473.737C1111.71 483.331 1098.48 497.603 1090.16 514.737C1073.16 550.737 1089.16 597.737 1119.16 631.737C1149.16 665.737 1189.16 688.737 1229.16 712.737C1253.16 727.737 1277.16 742.737 1297.16 763.737C1310.78 776.868 1322.25 792.053 1331.16 808.737C1335.42 816.797 1339.1 825.152 1342.16 833.737C1360.16 884.737 1358.16 941.737 1366.16 996.737C1375.16 1060.74 1406.16 1130.74 1465.16 1147.74C1526.16 1166.74 1582.16 1121.74 1616.16 1074.74C1635.16 1047.74 1651.16 1017.74 1672.16 991.737C1697.9 958.205 1733.07 933.131 1773.16 919.737C1797.16 910.737 1822.16 906.737 1846.16 899.737C1856.16 896.737 1865.16 891.737 1872.16 884.737C1881.16 875.737 1884.16 863.737 1886.16 851.737C1893.16 821.737 1900.16 790.737 1909.16 761.737C1924.16 711.737 1948.16 664.737 1976.16 635.737C1958.79 599.522 1944.09 562.089 1932.16 523.737C1928.16 513.737 1925.16 502.737 1930.16 490.737C1932.16 484.737 1936.16 480.737 1940.16 476.737C1961.16 454.737 1988.16 448.737 2013.16 445.737C2038.16 442.737 2066.16 439.737 2093.16 425.737" stroke="#D4D4D4"/>
<path opacity="0.05" d="M49.1604 520.736C149.16 483.736 230.16 411.736 313.16 348.736L347.16 326.736L368.16 314.736L445.16 273.736C481.16 253.736 520.16 235.736 565.16 207.736C596.16 188.736 627.16 163.736 659.16 142.736C691.16 121.736 727.16 104.736 761.16 94.7365C811.16 80.7365 869.16 72.7365 910.16 103.736L918.16 109.736C947.16 137.736 957.16 179.736 975.16 215.736C993.16 251.736 1030.16 287.736 1068.16 277.736C1102.16 269.736 1123.16 226.736 1158.16 233.736C1170.16 235.736 1180.16 243.736 1190.16 251.736C1219.16 277.736 1247.16 311.736 1247.16 349.736C1247.16 367.736 1240.16 383.736 1230.16 397.736C1217.16 415.736 1197.16 428.736 1177.16 439.736C1161.16 447.736 1144.16 455.736 1129.16 465.736C1111.16 476.736 1096.16 490.736 1086.16 509.736C1068.16 547.736 1084.16 598.736 1114.16 634.736C1144.16 670.736 1187.16 696.736 1227.16 722.736C1252.16 737.736 1277.16 754.736 1298.16 775.736C1312.25 789.824 1324.05 806.018 1333.16 823.736C1337.4 831.804 1341.08 840.157 1344.16 848.736C1363.16 901.736 1361.16 961.736 1369.16 1018.74C1378.16 1083.74 1410.16 1156.74 1472.16 1174.74C1536.16 1192.74 1595.16 1142.74 1630.16 1091.74C1649.16 1062.74 1666.16 1030.74 1688.16 1001.74C1713.82 965.926 1749.73 938.731 1791.16 923.736C1816.16 914.736 1842.16 910.736 1867.16 903.736C1877.16 901.736 1886.16 896.736 1893.16 889.736C1901.16 880.736 1903.16 868.736 1905.16 857.736C1910.16 828.736 1916.16 798.736 1923.16 769.736C1935.16 721.736 1954.16 674.736 1978.16 642.736C1965.18 608.914 1954.82 574.145 1947.16 538.736C1945.16 528.736 1943.16 518.736 1947.16 507.736C1949.35 502.895 1952.4 498.491 1956.16 494.736C1975.16 474.736 1998.16 466.736 2020.16 460.736C2042.16 454.736 2067.16 451.736 2091.16 437.736" stroke="#DDDCDC"/>
<path opacity="0.05" d="M52.1604 529.737C150.16 491.737 231.16 422.737 313.16 357.737L345.16 333.737L366.16 320.737L444.16 268.737C480.16 243.737 519.16 221.737 563.16 191.737C594.16 171.737 624.16 147.737 655.16 125.737C686.383 104.783 720.377 88.2905 756.16 76.737C808.16 60.737 868.16 50.737 911.16 82.737L919.16 89.737C950.16 117.737 960.16 161.737 978.16 198.737C996.16 235.737 1035.16 272.737 1074.16 261.737C1109.16 251.737 1131.16 206.737 1168.16 212.737C1180.16 214.737 1191.16 222.737 1200.16 231.737C1231.16 257.737 1260.16 293.737 1259.16 332.737C1259.16 352.737 1251.16 369.737 1240.16 383.737C1225.16 402.737 1203.16 417.737 1182.16 428.737L1129.16 456.737C1110.16 469.737 1093.16 483.737 1083.16 503.737C1062.16 545.737 1078.16 599.737 1109.16 638.737C1140.16 676.737 1184.16 704.737 1226.16 731.737C1251.16 748.737 1277.16 766.737 1299.16 788.737C1313.55 803.17 1325.69 819.689 1335.16 837.737C1339.43 846.135 1343.11 854.823 1346.16 863.737C1365.16 918.737 1363.16 980.737 1371.16 1039.74C1380.16 1107.74 1414.16 1183.74 1479.16 1200.74C1546.16 1217.74 1608.16 1164.74 1643.16 1108.74C1664.16 1076.74 1681.16 1041.74 1703.16 1010.74C1719.16 987.737 1739.16 966.737 1764.16 949.737C1778.16 940.737 1794.16 933.737 1810.16 927.737C1835.16 918.737 1862.16 913.737 1889.16 907.737C1898.16 905.737 1907.16 901.737 1914.16 894.737C1921.16 886.737 1923.16 874.737 1924.16 863.737L1936.16 777.737C1945.16 730.737 1960.16 684.737 1980.16 649.737C1971.52 617.951 1965.5 585.508 1962.16 552.737C1961.16 543.737 1960.16 534.737 1964.16 524.737C1966.19 520.349 1968.89 516.302 1972.16 512.737C1988.16 493.737 2008.16 484.737 2028.16 476.737C2048.16 468.737 2068.16 462.737 2090.16 449.737" stroke="#E5E5E5"/>
<path opacity="0.05" d="M55.1604 537.736C152.16 500.736 233.16 433.736 312.16 366.736L343.16 341.736L365.16 325.736L443.16 263.736C480.16 234.736 518.16 207.736 561.16 175.736C591.16 154.736 621.16 130.736 652.16 109.736C683.018 89.1294 716.261 72.3402 751.16 59.7365C804.16 40.7365 868.16 29.7365 912.16 62.7365C914.925 64.6031 917.594 66.6056 920.16 68.7365C953.16 97.7365 963.16 142.736 981.16 181.736C999.16 220.736 1040.16 258.736 1080.16 245.736C1117.16 234.736 1139.16 185.736 1178.16 191.736C1191.16 193.736 1201.16 202.736 1211.16 210.736C1243.16 238.736 1273.16 275.736 1271.16 316.736C1270.16 336.736 1262.16 354.736 1250.16 369.736C1233.16 390.736 1210.16 405.736 1187.16 417.736C1168.16 427.736 1148.16 437.736 1130.16 448.736C1109.16 461.736 1091.16 477.736 1080.16 499.736C1057.16 543.736 1072.16 600.736 1104.16 641.736C1136.16 682.736 1181.16 712.736 1225.16 741.736C1251.16 759.736 1277.16 778.736 1299.16 801.736C1314.16 816.736 1327.16 833.736 1337.16 852.736C1341.42 861.141 1345.09 869.828 1348.16 878.736C1368.16 935.736 1366.16 1000.74 1373.16 1060.74C1383.16 1131.74 1417.16 1209.74 1486.16 1226.74C1556.16 1243.74 1621.16 1185.74 1657.16 1125.74C1678.16 1091.74 1696.16 1053.74 1718.16 1020.74C1735.16 995.736 1755.16 972.736 1781.16 955.736C1795.82 945.896 1811.6 937.839 1828.16 931.736C1854.16 922.736 1883.16 917.736 1910.16 911.736C1919.16 909.736 1928.16 906.736 1934.16 899.736C1941.16 891.736 1942.16 880.736 1943.16 870.736L1950.16 786.736C1955.16 739.736 1966.16 694.736 1982.16 656.736C1978.18 626.913 1976.84 596.796 1978.16 566.736C1978.16 559.736 1978.16 550.736 1982.16 542.736C1983.73 538.853 1985.75 535.163 1988.16 531.736C2002.16 513.736 2018.16 502.736 2034.16 492.736C2050.16 482.736 2069.16 474.736 2088.16 461.736" stroke="#EEEEEE"/>
<path opacity="0.05" d="M57.1604 546.737C154.16 509.737 234.16 444.737 311.16 375.737L342.16 348.737L363.16 330.737L442.16 258.737C508.182 200.101 577.28 145.023 649.16 93.7368C679.914 73.0165 712.761 55.5874 747.16 41.7368C801.16 20.7368 867.16 8.73682 914.16 41.7368C916.944 43.9336 919.614 46.2699 922.16 48.7368C955.16 77.7368 965.16 124.737 984.16 164.737C1003.16 204.737 1045.16 243.737 1087.16 229.737C1125.16 216.737 1147.16 164.737 1187.16 170.737C1201.16 172.737 1212.16 181.737 1222.16 189.737C1255.16 218.737 1286.16 257.737 1283.16 300.737C1282.16 321.737 1273.16 340.737 1259.16 356.737C1241.16 377.737 1216.16 394.737 1192.16 407.737C1171.16 417.737 1150.16 427.737 1130.16 440.737C1108.16 454.737 1089.16 470.737 1076.16 493.737C1051.16 540.737 1067.16 601.737 1099.16 645.737C1131.16 689.737 1178.16 719.737 1223.16 751.737C1250.16 769.737 1277.16 789.737 1300.16 813.737C1315.16 829.737 1329.16 846.737 1339.16 866.737C1343.79 875.445 1347.8 884.467 1351.16 893.737C1371.16 952.737 1368.16 1019.74 1376.16 1082.74C1385.16 1155.74 1421.16 1236.74 1492.16 1252.74C1566.16 1269.74 1633.16 1206.74 1671.16 1142.74C1692.16 1105.74 1710.16 1065.74 1733.16 1030.74C1751.16 1003.74 1771.16 978.737 1798.16 960.737C1813.38 950.377 1829.84 941.978 1847.16 935.737C1874.16 925.737 1903.16 920.737 1931.16 915.737C1940.16 913.737 1949.16 911.737 1955.16 904.737C1962.16 897.737 1962.16 886.737 1962.16 876.737L1963.16 794.737C1966.16 749.737 1972.16 704.737 1984.16 663.737C1984.59 636.182 1987.6 608.729 1993.16 581.737C1994.16 574.737 1996.16 566.737 1999.16 559.737C2000.9 556.257 2002.91 552.914 2005.16 549.737C2015.16 532.737 2028.16 519.737 2042.16 508.737L2086.16 473.737" stroke="#F6F6F6"/>
<path opacity="0.05" d="M60.1604 554.737C331.16 449.737 476.16 139.737 742.16 23.7368C800.16 -1.26324 875.16 -14.2632 923.16 27.7368C958.16 57.7368 968.16 106.737 987.16 147.737C1006.16 188.737 1050.16 228.737 1093.16 213.737C1133.16 199.737 1156.16 143.737 1197.16 149.737C1211.16 151.737 1223.16 160.737 1233.16 169.737C1267.16 198.737 1299.16 238.737 1295.16 283.737C1291.16 335.737 1243.16 372.737 1196.16 396.737C1149.16 420.737 1098.16 442.737 1073.16 488.737C1046.16 538.737 1061.16 602.737 1094.16 649.737C1127.16 696.737 1176.16 727.737 1222.16 760.737C1268.16 793.737 1314.16 830.737 1341.16 880.737C1376.16 948.737 1369.16 1028.74 1378.16 1103.74C1387.16 1178.74 1425.16 1262.74 1499.16 1278.74C1576.16 1294.74 1646.16 1228.74 1685.16 1159.74C1724.16 1090.74 1751.16 1011.74 1815.16 965.737C1855.16 937.737 1904.16 926.737 1953.16 918.737C1961.16 917.737 1970.16 916.737 1975.16 910.737C1982.16 902.737 1982.16 891.737 1981.16 882.737C1976.16 811.737 1973.16 739.737 1986.16 670.737C1999.16 601.737 2031.16 532.737 2084.16 485.737" stroke="white"/>
</svg>
