<svg width="107" height="39" viewBox="0 0 107 39" fill="none" xmlns="http://www.w3.org/2000/svg">
<path d="M17.1648 19.8693H12.9034C12.8466 19.4318 12.7301 19.0369 12.554 18.6847C12.3778 18.3324 12.1449 18.0312 11.8551 17.7812C11.5653 17.5312 11.2216 17.3409 10.8239 17.2102C10.4318 17.0739 9.99716 17.0057 9.51989 17.0057C8.6733 17.0057 7.94318 17.2131 7.32955 17.6278C6.72159 18.0426 6.25284 18.642 5.9233 19.4261C5.59943 20.2102 5.4375 21.1591 5.4375 22.2727C5.4375 23.4318 5.60227 24.4034 5.93182 25.1875C6.26705 25.9659 6.7358 26.554 7.33807 26.9517C7.94602 27.3437 8.66477 27.5398 9.49432 27.5398C9.96023 27.5398 10.3835 27.4801 10.7642 27.3608C11.1506 27.2415 11.4886 27.0682 11.7784 26.8409C12.0739 26.608 12.3153 26.3267 12.5028 25.9972C12.696 25.6619 12.8295 25.2841 12.9034 24.8636L17.1648 24.8892C17.0909 25.6619 16.8665 26.4233 16.4915 27.1733C16.1222 27.9233 15.6136 28.608 14.9659 29.2273C14.3182 29.8409 13.5284 30.3295 12.5966 30.6932C11.6705 31.0568 10.608 31.2386 9.40909 31.2386C7.82955 31.2386 6.41477 30.892 5.16477 30.1989C3.92045 29.5 2.9375 28.483 2.21591 27.1477C1.49432 25.8125 1.13352 24.1875 1.13352 22.2727C1.13352 20.3523 1.5 18.7244 2.23295 17.3892C2.96591 16.054 3.95739 15.0398 5.20739 14.3466C6.45739 13.6534 7.85795 13.3068 9.40909 13.3068C10.4659 13.3068 11.4432 13.4545 12.3409 13.75C13.2386 14.0398 14.0284 14.4659 14.7102 15.0284C15.392 15.5852 15.946 16.2699 16.3722 17.0824C16.7983 17.8949 17.0625 18.8239 17.1648 19.8693Z" fill="black" style="fill:black;fill-opacity:1;"/>
<path d="M35.7955 22.2727C35.7955 24.1932 35.4261 25.821 34.6875 27.1562C33.9489 28.4915 32.9489 29.5057 31.6875 30.1989C30.4318 30.892 29.0227 31.2386 27.4602 31.2386C25.892 31.2386 24.4801 30.8892 23.2244 30.1903C21.9688 29.4915 20.9716 28.4773 20.233 27.1477C19.5 25.8125 19.1335 24.1875 19.1335 22.2727C19.1335 20.3523 19.5 18.7244 20.233 17.3892C20.9716 16.054 21.9688 15.0398 23.2244 14.3466C24.4801 13.6534 25.892 13.3068 27.4602 13.3068C29.0227 13.3068 30.4318 13.6534 31.6875 14.3466C32.9489 15.0398 33.9489 16.054 34.6875 17.3892C35.4261 18.7244 35.7955 20.3523 35.7955 22.2727ZM31.483 22.2727C31.483 21.1364 31.321 20.1761 30.9972 19.392C30.679 18.608 30.2188 18.0142 29.6165 17.6108C29.0199 17.2074 28.3011 17.0057 27.4602 17.0057C26.625 17.0057 25.9063 17.2074 25.304 17.6108C24.7017 18.0142 24.2386 18.608 23.9148 19.392C23.5966 20.1761 23.4375 21.1364 23.4375 22.2727C23.4375 23.4091 23.5966 24.3693 23.9148 25.1534C24.2386 25.9375 24.7017 26.5312 25.304 26.9347C25.9063 27.3381 26.625 27.5398 27.4602 27.5398C28.3011 27.5398 29.0199 27.3381 29.6165 26.9347C30.2188 26.5312 30.679 25.9375 30.9972 25.1534C31.321 24.3693 31.483 23.4091 31.483 22.2727Z" fill="black" style="fill:black;fill-opacity:1;"/>
<path d="M53.1648 19.8693H48.9034C48.8466 19.4318 48.7301 19.0369 48.554 18.6847C48.3778 18.3324 48.1449 18.0312 47.8551 17.7812C47.5653 17.5312 47.2216 17.3409 46.8239 17.2102C46.4318 17.0739 45.9972 17.0057 45.5199 17.0057C44.6733 17.0057 43.9432 17.2131 43.3295 17.6278C42.7216 18.0426 42.2528 18.642 41.9233 19.4261C41.5994 20.2102 41.4375 21.1591 41.4375 22.2727C41.4375 23.4318 41.6023 24.4034 41.9318 25.1875C42.267 25.9659 42.7358 26.554 43.3381 26.9517C43.946 27.3437 44.6648 27.5398 45.4943 27.5398C45.9602 27.5398 46.3835 27.4801 46.7642 27.3608C47.1506 27.2415 47.4886 27.0682 47.7784 26.8409C48.0739 26.608 48.3153 26.3267 48.5028 25.9972C48.696 25.6619 48.8295 25.2841 48.9034 24.8636L53.1648 24.8892C53.0909 25.6619 52.8665 26.4233 52.4915 27.1733C52.1222 27.9233 51.6136 28.608 50.9659 29.2273C50.3182 29.8409 49.5284 30.3295 48.5966 30.6932C47.6705 31.0568 46.608 31.2386 45.4091 31.2386C43.8295 31.2386 42.4148 30.892 41.1648 30.1989C39.9205 29.5 38.9375 28.483 38.2159 27.1477C37.4943 25.8125 37.1335 24.1875 37.1335 22.2727C37.1335 20.3523 37.5 18.7244 38.233 17.3892C38.9659 16.054 39.9574 15.0398 41.2074 14.3466C42.4574 13.6534 43.858 13.3068 45.4091 13.3068C46.4659 13.3068 47.4432 13.4545 48.3409 13.75C49.2386 14.0398 50.0284 14.4659 50.7102 15.0284C51.392 15.5852 51.946 16.2699 52.3722 17.0824C52.7983 17.8949 53.0625 18.8239 53.1648 19.8693Z" fill="black" style="fill:black;fill-opacity:1;"/>
<path d="M90.3182 21.0455V31H84.7614V13.5455H90.0455V16.75H90.2386C90.625 15.6818 91.2841 14.8447 92.2159 14.2386C93.1477 13.625 94.2576 13.3182 95.5455 13.3182C96.7727 13.3182 97.8371 13.5947 98.7386 14.1477C99.6477 14.6932 100.352 15.4583 100.852 16.4432C101.36 17.4205 101.61 18.5644 101.602 19.875V31H96.0455V20.9659C96.053 19.9962 95.8068 19.2386 95.3068 18.6932C94.8144 18.1477 94.1288 17.875 93.25 17.875C92.6667 17.875 92.1515 18.0038 91.7045 18.2614C91.2652 18.5114 90.9242 18.8712 90.6818 19.3409C90.447 19.8106 90.3258 20.3788 90.3182 21.0455Z" fill="black" style="fill:black;fill-opacity:1;"/>
<path fill-rule="evenodd" clip-rule="evenodd" d="M62.8946 11.1446C64.8669 11.4906 66.8936 12.4632 68.6535 13.9544C70.4165 12.4653 72.4429 11.495 74.4157 11.1513C76.6384 10.763 78.9317 11.1592 80.5373 12.7082C82.1114 14.2282 82.5363 16.3833 82.169 18.4839C81.8401 20.3674 80.8718 22.3085 79.3695 24.0043C79.7141 25.3241 79.6256 26.7142 79.1164 27.9835C78.6071 29.2527 77.7021 30.3386 76.5259 31.0917C75.3497 31.8448 73.9602 32.2281 72.5485 32.1887C71.1369 32.1494 69.7727 31.6893 68.6436 30.872C67.5135 31.6885 66.1486 32.1474 64.7366 32.1853C63.3247 32.2233 61.9352 31.8385 60.7596 31.0839C59.584 30.3294 58.6801 29.2421 58.1723 27.972C57.6646 26.7019 57.5779 25.3113 57.9243 23.9918C56.4281 22.2941 55.4594 20.3519 55.134 18.4681C54.7692 16.367 55.1966 14.2124 56.7725 12.6942C58.3785 11.1472 60.6723 10.7536 62.8946 11.1446ZM58.7016 14.5567C59.4958 13.7924 60.7814 13.4482 62.4041 13.7335C63.7973 13.9778 65.3323 14.6777 66.729 15.829L66.647 15.9014C66.1509 16.3565 65.7653 16.9539 65.4713 17.5896C64.8804 18.8674 64.5516 20.5363 64.5505 22.3134C64.5495 24.0891 64.8777 25.7597 65.4657 27.0369C65.759 27.6729 66.1439 28.2707 66.6395 28.7265C66.6996 28.7818 66.7624 28.8354 66.8279 28.8872C66.1019 29.3561 65.2392 29.589 64.366 29.5519C63.4927 29.5149 62.6547 29.2097 61.9742 28.681C61.2937 28.1524 60.8065 27.4279 60.5836 26.6134C60.3608 25.799 60.414 24.9372 60.7355 24.154C60.8313 23.92 60.8555 23.6645 60.8053 23.4176C60.7551 23.1708 60.6326 22.943 60.4522 22.7611C58.9655 21.2649 58.0908 19.5545 57.8267 18.0353C57.5626 16.5121 57.9239 15.3079 58.703 14.558M70.4629 28.8893C71.1883 29.3588 72.0505 29.5926 72.9235 29.5565C73.7965 29.5204 74.6347 29.2163 75.3157 28.6887C75.9967 28.1611 76.4848 27.4375 76.7088 26.6236C76.9328 25.8097 76.881 24.9481 76.5609 24.1646C76.4643 23.9301 76.4397 23.6738 76.49 23.4262C76.5403 23.1787 76.6633 22.9502 76.8445 22.7681C78.3329 21.275 79.2096 19.5655 79.4755 18.0466C79.7414 16.5238 79.3828 15.3191 78.6033 14.5684C77.8114 13.8031 76.5262 13.4575 74.9018 13.7408C73.5111 13.9835 71.9739 14.6816 70.5758 15.8313L70.6577 15.9037C71.1533 16.3595 71.5381 16.9573 71.8315 17.5933C72.4181 18.8705 72.7477 20.5411 72.7467 22.3168C72.7456 24.0926 72.4154 25.7628 71.8259 27.0393C71.5319 27.675 71.1463 28.2724 70.6502 28.7275C70.59 28.7828 70.5271 28.8363 70.4615 28.888M67.2826 22.315C67.2834 20.8196 67.567 19.5284 67.9677 18.6612C68.1688 18.2269 68.3725 17.9546 68.5283 17.8112C68.6376 17.7112 68.6649 17.7112 68.7728 17.8113C68.9298 17.9562 69.1332 18.2262 69.3337 18.662C69.7335 19.531 70.0155 20.8212 70.0146 22.3166C70.0137 23.8119 69.7302 25.1031 69.3295 25.9703C69.1284 26.4046 68.9247 26.6756 68.7675 26.8203C68.6582 26.919 68.6322 26.919 68.5244 26.8202C68.3674 26.6753 68.164 26.404 67.9621 25.9695C67.5637 25.1005 67.2803 23.8103 67.2812 22.315" fill="black" style="fill:black;fill-opacity:1;"/>
<path d="M99.0672 9.24214C98.0145 9.6851 99.516 13.2302 99.6015 13.3407C99.6869 13.4513 99.9175 14.0102 100.716 13.0335C101.514 12.0568 101.768 11.0424 101.795 10.6572C101.324 10.001 100.12 8.79919 99.0672 9.24214Z" stroke="black" style="stroke:black;stroke-opacity:1;"/>
<path d="M101.333 14.5183C101.377 15.6595 104.034 15.6227 105.357 15.4628C105.655 15.533 106.095 15.403 105.462 14.3117C104.83 13.2204 103.97 12.6254 103.619 12.4643C102.839 12.6734 101.29 13.3771 101.333 14.5183Z" stroke="black" style="stroke:black;stroke-opacity:1;"/>
</svg>
